<?xml version="1.0" encoding="UTF-8"?>
<svg width="17px" height="17px" viewBox="0 0 17 17" version="1.1" xmlns="http://www.w3.org/2000/svg" xmlns:xlink="http://www.w3.org/1999/xlink">
    <!-- Generator: Sketch 57.1 (83088) - https://sketch.com -->
    <title>Group 47</title>
    <desc>Created with Sketch.</desc>
    <defs>
        <polygon id="path-1" points="1 0.4103 1.9251 0.4103 1.9251 2.5773 1 2.5773"></polygon>
        <polygon id="path-3" points="0.3557 1 2.5347 1 2.5347 1.74489893 0.3557 1.74489893"></polygon>
        <polygon id="path-5" points="0.9353 0.4317 1.856 0.4317 1.856 2.5987 0.9353 2.5987"></polygon>
        <polygon id="path-7" points="1 0.2018 1.8381 0.2018 1.8381 2.3698 1 2.3698"></polygon>
        <polygon id="path-9" points="0.9991 0.9508 1.856 0.9508 1.856 3.1148 0.9991 3.1148"></polygon>
        <polygon id="path-11" points="0.0907 0.6046 1.6187 0.6046 1.6187 2 0.0907 2"></polygon>
    </defs>
    <g id="Android-v5" stroke="none" stroke-width="1" fill="none" fill-rule="evenodd">
        <g id="Group-47" transform="translate(-1.000000, -1.000000)">
            <path d="M16.2552,8.8722 C16.2552,5.4502 13.2672,2.6762 9.5802,2.6762 C5.8942,2.6762 2.8632,5.4502 2.8632,8.8722 C2.8632,10.7972 3.4522,12.6782 5.0422,13.7852 L5.1762,15.7712 C5.1922,16.0172 5.4632,16.1572 5.6732,16.0292 C6.3762,15.6022 7.6392,14.8392 7.6782,14.8482 C12.8462,15.9702 16.2552,12.2942 16.2552,8.8722" id="Fill-1" fill="#C6C7C8"></path>
            <g id="Group-5" transform="translate(0.000000, 6.000000)">
                <mask id="mask-2" fill="white">
                    <use xlink:href="#path-1"></use>
                </mask>
                <g id="Clip-4"></g>
                <path d="M1.8421,0.5553 L1.4411,0.4103 C1.1921,1.1013 1.0461,1.8233 1.0081,2.5553 L1.4341,2.5773 C1.4701,1.8873 1.6081,1.2063 1.8421,0.5553" id="Fill-3" fill="#C6C7C8" mask="url(#mask-2)"></path>
            </g>
            <path d="M7.7914,1.5894 L7.7084,1.1714 C6.9904,1.3134 6.2944,1.5454 5.6394,1.8584 L5.8224,2.2434 C6.4464,1.9454 7.1084,1.7254 7.7914,1.5894" id="Fill-6" fill="#C6C7C8"></path>
            <path d="M5.2718,2.5333 L5.0588,2.1633 C4.4218,2.5303 3.8368,2.9743 3.3228,3.4853 L3.6228,3.7873 C4.1118,3.3033 4.6668,2.8813 5.2718,2.5333" id="Fill-8" fill="#C6C7C8"></path>
            <path d="M3.1986,4.2433 L2.8746,3.9653 C2.3926,4.5253 1.9946,5.1433 1.6906,5.8013 L2.0786,5.9803 C2.3656,5.3583 2.7426,4.7743 3.1986,4.2433" id="Fill-10" fill="#C6C7C8"></path>
            <g id="Group-14" transform="translate(8.000000, 0.000000)">
                <mask id="mask-4" fill="white">
                    <use xlink:href="#path-3"></use>
                </mask>
                <g id="Clip-13"></g>
                <path d="M2.4837,1.4889 L2.5347,1.0649 C1.8177,0.9779 1.0737,0.9779 0.3557,1.0669 L0.4077,1.4899 C1.0907,1.4059 1.7997,1.4059 2.4837,1.4889" id="Fill-12" fill="#C6C7C8" mask="url(#mask-4)"></path>
            </g>
            <path d="M17.18,5.8219 C16.881,5.1609 16.487,4.5399 16.009,3.9769 L15.684,4.2529 C16.136,4.7859 16.508,5.3729 16.791,5.9979 L17.18,5.8219 Z" id="Fill-15" fill="#C6C7C8"></path>
            <g id="Group-19" transform="translate(16.000000, 6.000000)">
                <mask id="mask-6" fill="white">
                    <use xlink:href="#path-5"></use>
                </mask>
                <g id="Clip-18"></g>
                <path d="M1.4203,2.5987 L1.8473,2.5777 C1.8113,1.8457 1.6693,1.1237 1.4253,0.4317 L1.0233,0.5747 C1.2533,1.2267 1.3873,1.9077 1.4203,2.5987" id="Fill-17" fill="#C6C7C8" mask="url(#mask-6)"></path>
            </g>
            <path d="M15.5638,3.4933 C15.0508,2.9793 14.4678,2.5323 13.8328,2.1633 L13.6188,2.5333 C14.2228,2.8833 14.7758,3.3073 15.2618,3.7953 L15.5638,3.4933 Z" id="Fill-20" fill="#C6C7C8"></path>
            <path d="M13.2523,1.857 C12.5973,1.542 11.9003,1.311 11.1823,1.169 L11.1003,1.587 C11.7823,1.722 12.4443,1.942 13.0663,2.241 L13.2523,1.857 Z" id="Fill-22" fill="#C6C7C8"></path>
            <path d="M13.9808,15.214 L14.2088,15.575 C14.8308,15.183 15.3918,14.709 15.8768,14.165 L15.5588,13.881 C15.1008,14.395 14.5698,14.843 13.9808,15.214" id="Fill-24" fill="#C6C7C8"></path>
            <g id="Group-28" transform="translate(0.000000, 9.000000)">
                <mask id="mask-8" fill="white">
                    <use xlink:href="#path-7"></use>
                </mask>
                <g id="Clip-27"></g>
                <path d="M1.4261,0.2018 L1.0001,0.2098 C1.0161,0.9828 1.1041,1.7088 1.2611,2.3698 L1.6761,2.2708 C1.5261,1.6388 1.4421,0.9438 1.4261,0.2018" id="Fill-26" fill="#C6C7C8" mask="url(#mask-8)"></path>
            </g>
            <path d="M11.4945,16.2325 L11.5895,16.6485 C12.3155,16.4825 13.0055,16.2305 13.6385,15.9015 L13.4405,15.5235 C12.8405,15.8355 12.1845,16.0745 11.4945,16.2325" id="Fill-29" fill="#C6C7C8"></path>
            <path d="M9.3138,16.4703 L9.3128,16.4703 C9.1438,16.4703 8.9698,16.4663 8.7968,16.4583 L8.7778,16.8843 C8.9578,16.8923 9.1368,16.8973 9.3128,16.8973 L9.3138,16.8973 C9.8728,16.8973 10.4218,16.8553 10.9468,16.7723 L10.8798,16.3503 C10.3768,16.4303 9.8498,16.4703 9.3138,16.4703" id="Fill-31" fill="#C6C7C8"></path>
            <g id="Group-35" transform="translate(16.000000, 8.000000)">
                <mask id="mask-10" fill="white">
                    <use xlink:href="#path-9"></use>
                </mask>
                <g id="Clip-34"></g>
                <path d="M1.4291,0.9508 C1.4291,1.6418 1.3321,2.3308 1.1421,2.9978 L1.5521,3.1148 C1.7531,2.4098 1.8561,1.6818 1.8561,0.9508 L1.4291,0.9508 Z" id="Fill-33" fill="#C6C7C8" mask="url(#mask-10)"></path>
            </g>
            <path d="M15.9525,13.3995 L16.2935,13.6555 C16.7315,13.0705 17.0855,12.4255 17.3455,11.7385 L16.9455,11.5875 C16.7005,12.2375 16.3655,12.8465 15.9525,13.3995" id="Fill-36" fill="#C6C7C8"></path>
            <path d="M1.4398,12.0025 C1.6808,12.7365 2.0218,13.3915 2.4558,13.9485 L2.7928,13.6875 C2.3888,13.1685 2.0708,12.5575 1.8448,11.8695 L1.4398,12.0025 Z" id="Fill-38" fill="#C6C7C8"></path>
            <path d="M7.6527,16.3531 C7.5947,16.3531 7.5707,16.3531 6.0487,16.9771 L6.2117,17.3721 C7.2637,16.9391 7.5787,16.8171 7.6717,16.7841 C7.8237,16.8051 7.9777,16.8221 8.1287,16.8371 L8.1707,16.4131 C8.0087,16.3971 7.8447,16.3771 7.6817,16.3551 C7.6727,16.3531 7.6627,16.3531 7.6527,16.3531" id="Fill-40" fill="#C6C7C8"></path>
            <path d="M3.9398,14.8282 C3.9258,14.7842 3.8988,14.7462 3.8618,14.7192 C3.6248,14.5472 3.4008,14.3552 3.1968,14.1492 L2.8928,14.4492 C3.0968,14.6552 3.3188,14.8482 3.5538,15.0222 L3.8988,16.1212 L4.3058,15.9932 L3.9398,14.8282 Z" id="Fill-42" fill="#C6C7C8"></path>
            <g id="Group-46" transform="translate(4.000000, 16.000000)">
                <mask id="mask-12" fill="white">
                    <use xlink:href="#path-11"></use>
                </mask>
                <g id="Clip-45"></g>
                <path d="M0.7787,1.5006 L0.4977,0.6046 L0.0907,0.7316 L0.4407,1.8506 C0.4597,1.9076 0.5007,1.9546 0.5537,1.9796 C0.5827,1.9936 0.6137,2.0006 0.6447,2.0006 C0.6727,2.0006 0.7007,1.9946 0.7257,1.9836 C0.7257,1.9836 1.1177,1.8216 1.6187,1.6156 L1.4557,1.2206 C1.1817,1.3336 0.9407,1.4336 0.7787,1.5006" id="Fill-44" fill="#C6C7C8" mask="url(#mask-12)"></path>
            </g>
        </g>
    </g>
</svg>